<?xml version="1.0" encoding="UTF-8" standalone="no"?>
<svg
   width="512"
   height="512"
   viewBox="0 0 512 512"
   version="1.1"
   id="svg1"
   xmlns:xlink="http://www.w3.org/1999/xlink"
   xmlns="http://www.w3.org/2000/svg"
   xmlns:svg="http://www.w3.org/2000/svg">
  <defs
     id="defs1">
    <pattern
       xlink:href="#shading26"
       preserveAspectRatio="xMidYMid"
       id="pattern71"
       patternTransform="matrix(0.48296291,-0.12940952,0.12940952,0.48296291,213.95313,1661.1855)"
       x="0"
       y="0" />
    <clipPath
       clipPathUnits="userSpaceOnUse"
       id="clipPath54">
      <path
         id="path54"
         style="stroke-width:0.0999999;stroke-linecap:square;paint-order:markers fill stroke;stop-color:#000000"
         d="m 1691.1994,-792.32001 h 1634.8919 v 92.82806 H 1691.1994 Z" />
    </clipPath>
    <pattern
       patternUnits="userSpaceOnUse"
       width="458.91419"
       height="32.1666"
       patternTransform="translate(213.95313,1661.1855) scale(0.50)"
       preserveAspectRatio="xMidYMid"
       id="shading26"
       style="fill:#000000">
      <path
         style="fill-rule:nonzero;stroke:none;stroke-width:0.1;stroke-linecap:square;paint-order:markers fill stroke;stop-color:#000000"
         d="m 1805.253,-758.46472 c 2.0199,-1.6381 19.9642,8.10228 21.9841,6.46418 21.6198,-17.53283 46.2727,-37.64976 73.5246,-59.981 v 0 c 25.9809,19.65985 54.0444,40.83546 83.863,63.2885 l 10.6075,7.98549 10.4529,-7.68367 c 27.0646,-19.89942 55.5585,-40.88668 85.2364,-62.77519 v 0 c 27.7606,18.37638 56.4868,37.37105 85.989,56.86265 l 8.4807,5.6026 8.226,-5.34235 c 28.4598,-18.48466 57.6391,-37.45176 87.3659,-56.7859 v 0 c 28.9846,16.55965 58.4587,33.38981 88.2675,50.40499 l 6.2651,3.57611 6.0027,-3.36923 c 29.5517,-16.58735 59.4322,-33.36536 89.4887,-50.24537 v 0 c 30.0302,14.47678 60.2186,29.02709 90.4154,43.58131 l 4.2068,2.02761 3.9808,-1.87912 c 30.5113,-14.40273 61.0311,-28.80967 91.403,-43.14415 30.9776,12.19206 61.7896,24.32173 92.2716,36.32702 l 2.456,0.9673 2.2912,-0.87545 c 31.4044,-11.99933 62.4587,-23.85885 92.9812,-35.50596 v 0 c 31.8985,9.7531 63.2067,19.33577 93.7183,28.6884 l 1.1227,0.34414 1.0302,-0.30014 c 32.3552,-9.4259 63.8161,-18.57513 94.1348,-27.37102 33.0276,7.23306 64.6894,14.19252 94.6654,20.81424 l 0.2874,0.0635 0.2604,-0.0518 c 33.9102,-6.74391 65.6711,-13.01584 94.819,-18.71395 v 0 c 35.9763,4.87029 67.9479,9.29314 95.0397,13.17078 -27.1102,-3.88028 -59.0638,-8.60724 -94.9917,-14.02894 l -0.067,-0.0101 -0.073,0.0131 c -29.166,5.24521 -60.9646,10.90129 -94.9296,16.89548 v 0 c -29.945,-7.29193 -61.5634,-15.02639 -94.536,-23.11898 l -0.5817,-0.14278 -0.639,0.1683 c -30.3517,7.994 -61.8539,16.26941 -94.2589,24.76558 v 0 c -30.4835,-10.24387 -61.7575,-20.76785 -93.6151,-31.49861 l -1.6023,-0.53972 -1.7314,0.6061 c -30.5409,10.69114 -61.6186,21.56098 -93.0524,32.54935 v 0 c -30.4769,-13.00991 -61.279,-26.16438 -92.2405,-39.38965 l -3.0877,-1.31894 -3.2854,1.43846 c -30.361,13.29293 -60.8752,26.65035 -91.3881,40.00719 v 0 c -30.226,-15.62318 -60.4371,-31.23836 -90.4809,-46.76407 l -4.9574,-2.56184 -5.2057,2.73972 c -30.0066,15.79238 -59.8462,31.49984 -89.3693,47.04623 v 0 c -29.8816,-18.11236 -59.4157,-36.00744 -88.4434,-53.58593 l -7.0991,-4.2989 -7.365,4.53346 c -29.6279,18.23811 -58.7274,36.16094 -87.1317,53.6691 -29.6324,-20.57281 -58.4593,-40.56911 -86.2836,-59.84778 l -9.3564,-6.4819 -9.5787,6.76494 c -29.5053,20.84087 -57.8757,40.90538 -84.878,60.03398 v 0 c -30.0663,-23.44287 -58.2811,-45.39239 -84.2942,-65.56618 l -11.4535,-8.87805 -11.4711,9.19271 c -32.0177,25.67056 -60.6296,48.71345 -85.1752,68.61894 -2.0199,1.6381 3.8046,21.20709 1.7847,22.84519 z m 0,46.41401 c 2.0199,-1.6381 19.9642,8.10228 21.9841,6.46418 21.6198,-17.53283 46.2727,-37.64976 73.5246,-59.981 v 0 c 25.9809,19.65985 54.0444,40.83546 83.863,63.2885 l 10.6075,7.98549 10.4529,-7.68367 c 27.0646,-19.89942 55.5585,-40.88668 85.2364,-62.77519 v 0 c 27.7606,18.37638 56.4868,37.37105 85.989,56.86265 l 8.4807,5.6026 8.226,-5.34235 c 28.4598,-18.48466 57.6391,-37.45176 87.3659,-56.7859 v 0 c 28.9846,16.55965 58.4587,33.38981 88.2675,50.40499 l 6.2651,3.57611 6.0027,-3.36923 c 29.5517,-16.58735 59.4322,-33.36536 89.4887,-50.24537 v 0 c 30.0302,14.47678 60.2186,29.02709 90.4154,43.58131 l 4.2068,2.02761 3.9808,-1.87912 c 30.5113,-14.40273 61.0311,-28.80967 91.403,-43.14415 30.9776,12.19206 61.7896,24.32173 92.2716,36.32702 l 2.456,0.9673 2.2912,-0.87545 c 31.4044,-11.99933 62.4587,-23.85885 92.9812,-35.50596 v 0 c 31.8985,9.75309 63.2067,19.33577 93.7183,28.6884 l 1.1227,0.34414 1.0302,-0.30014 c 32.3552,-9.4259 63.8161,-18.57513 94.1348,-27.37103 33.0276,7.23307 64.6894,14.19253 94.6654,20.81425 l 0.2874,0.0635 0.2604,-0.0518 c 33.9102,-6.74391 65.6711,-13.01584 94.819,-18.71395 v 0 c 35.9763,4.87029 67.9479,9.29314 95.0397,13.17078 -27.1102,-3.88028 -59.0638,-8.60724 -94.9917,-14.02894 l -0.067,-0.0101 -0.073,0.0131 c -29.166,5.24521 -60.9646,10.90129 -94.9296,16.89548 v 0 c -29.945,-7.29193 -61.5634,-15.02639 -94.536,-23.11899 l -0.5817,-0.14277 -0.639,0.1683 c -30.3517,7.994 -61.8539,16.26941 -94.2589,24.76558 v 0 c -30.4835,-10.24387 -61.7575,-20.76785 -93.6151,-31.49861 l -1.6023,-0.53972 -1.7314,0.6061 c -30.5409,10.69114 -61.6186,21.56098 -93.0524,32.54935 v 0 c -30.4769,-13.00991 -61.279,-26.16438 -92.2405,-39.38965 l -3.0877,-1.31894 -3.2854,1.43846 c -30.361,13.29292 -60.8752,26.65035 -91.3881,40.00719 v 0 c -30.226,-15.62318 -60.4371,-31.23836 -90.4809,-46.76407 l -4.9574,-2.56184 -5.2057,2.73972 c -30.0066,15.79238 -59.8462,31.49984 -89.3693,47.04623 v 0 c -29.8816,-18.11237 -59.4157,-36.00744 -88.4434,-53.58593 l -7.0991,-4.2989 -7.365,4.53346 c -29.6279,18.23811 -58.7274,36.16094 -87.1317,53.6691 -29.6324,-20.57281 -58.4593,-40.56911 -86.2836,-59.84778 l -9.3564,-6.4819 -9.5787,6.76494 c -29.5053,20.84087 -57.8757,40.90538 -84.878,60.03398 v 0 c -30.0663,-23.44287 -58.2811,-45.39239 -84.2942,-65.56618 l -11.4535,-8.87805 -11.4711,9.19271 c -32.0177,25.67056 -60.6296,48.71345 -85.1752,68.61894 -2.0199,1.6381 3.8046,21.20709 1.7847,22.84519 z m 0,46.41401 c 2.0199,-1.6381 19.9642,8.10228 21.9841,6.46418 21.6198,-17.53283 46.2727,-37.64976 73.5246,-59.981 v 0 c 25.9809,19.65985 54.0444,40.83546 83.863,63.2885 l 10.6075,7.98549 10.4529,-7.68367 c 27.0646,-19.89942 55.5585,-40.88668 85.2364,-62.77519 v 0 c 27.7606,18.37638 56.4868,37.37105 85.989,56.86265 l 8.4807,5.6026 8.226,-5.34235 c 28.4598,-18.48466 57.6391,-37.45176 87.3659,-56.78591 v 0 c 28.9846,16.55966 58.4587,33.38982 88.2675,50.405 l 6.2651,3.57611 6.0027,-3.36923 c 29.5517,-16.58735 59.4322,-33.36536 89.4887,-50.24537 v 0 c 30.0302,14.47678 60.2186,29.02709 90.4154,43.58131 l 4.2068,2.02761 3.9808,-1.87912 c 30.5113,-14.40274 61.0311,-28.80967 91.403,-43.14415 30.9776,12.19206 61.7896,24.32173 92.2716,36.32702 l 2.456,0.9673 2.2912,-0.87545 c 31.4044,-11.99933 62.4587,-23.85885 92.9812,-35.50596 v 0 c 31.8985,9.75309 63.2067,19.33577 93.7183,28.6884 l 1.1227,0.34414 1.0302,-0.30014 c 32.3552,-9.4259 63.8161,-18.57513 94.1348,-27.37103 33.0276,7.23307 64.6894,14.19253 94.6654,20.81425 l 0.2874,0.0635 0.2604,-0.0518 c 33.9102,-6.74391 65.6711,-13.01584 94.819,-18.71395 v 0 c 35.9763,4.87029 67.9479,9.29314 95.0397,13.17078 -27.1102,-3.88028 -59.0638,-8.60724 -94.9917,-14.02894 l -0.067,-0.0101 -0.073,0.0131 c -29.166,5.24521 -60.9646,10.90129 -94.9296,16.89547 v 0 c -29.945,-7.29193 -61.5634,-15.02638 -94.536,-23.11898 l -0.5817,-0.14277 -0.639,0.1683 c -30.3517,7.994 -61.8539,16.26941 -94.2589,24.76558 v 0 c -30.4835,-10.24387 -61.7575,-20.76785 -93.6151,-31.49861 l -1.6023,-0.53972 -1.7314,0.6061 c -30.5409,10.69114 -61.6186,21.56098 -93.0524,32.54935 v 0 c -30.4769,-13.00991 -61.279,-26.16438 -92.2405,-39.38965 l -3.0877,-1.31894 -3.2854,1.43846 c -30.361,13.29292 -60.8752,26.65034 -91.3881,40.00719 v 0 c -30.226,-15.62318 -60.4371,-31.23836 -90.4809,-46.76407 l -4.9574,-2.56184 -5.2057,2.73972 c -30.0066,15.79238 -59.8462,31.49984 -89.3693,47.04622 v 0 c -29.8816,-18.11236 -59.4157,-36.00743 -88.4434,-53.58592 l -7.0991,-4.2989 -7.365,4.53346 c -29.6279,18.2381 -58.7274,36.16094 -87.1317,53.6691 -29.6324,-20.57281 -58.4593,-40.56911 -86.2836,-59.84778 l -9.3564,-6.4819 -9.5787,6.76494 c -29.5053,20.84087 -57.8757,40.90538 -84.878,60.03398 v 0 c -30.0663,-23.44287 -58.2811,-45.39239 -84.2942,-65.56618 l -11.4535,-8.87805 -11.4711,9.19271 c -32.0177,25.67055 -60.6296,48.71345 -85.1752,68.61894 -2.0199,1.6381 3.8046,21.20709 1.7847,22.84519 z m 0,46.41401 c 2.0199,-1.6381 19.9642,8.10228 21.9841,6.46418 21.6198,-17.53283 46.2727,-37.64976 73.5246,-59.981 v 0 c 25.9809,19.65985 54.0444,40.83546 83.863,63.2885 l 10.6075,7.98549 10.4529,-7.68367 c 27.0646,-19.89942 55.5585,-40.88668 85.2364,-62.77519 v 0 c 27.7606,18.37638 56.4868,37.37105 85.989,56.86265 l 8.4807,5.6026 8.226,-5.34235 c 28.4598,-18.48466 57.6391,-37.45176 87.3659,-56.78591 v 0 c 28.9846,16.55966 58.4587,33.38982 88.2675,50.405 l 6.2651,3.57611 6.0027,-3.36923 c 29.5517,-16.58735 59.4322,-33.36536 89.4887,-50.24537 v 0 c 30.0302,14.47678 60.2186,29.02709 90.4154,43.58131 l 4.2068,2.02761 3.9808,-1.87913 c 30.5113,-14.40273 61.0311,-28.80966 91.403,-43.14414 30.9776,12.19206 61.7896,24.32173 92.2716,36.32702 l 2.456,0.9673 2.2912,-0.87545 c 31.4044,-11.99933 62.4587,-23.85885 92.9812,-35.50596 v 0 c 31.8985,9.75309 63.2067,19.33577 93.7183,28.6884 l 1.1227,0.34414 1.0302,-0.30014 c 32.3552,-9.4259 63.8161,-18.57513 94.1348,-27.37103 33.0276,7.23307 64.6894,14.19253 94.6654,20.81425 l 0.2874,0.0635 0.2604,-0.0518 c 33.9102,-6.74391 65.6711,-13.01584 94.819,-18.71395 v 0 c 35.9763,4.87029 67.9479,9.29314 95.0397,13.17078 -27.1102,-3.88028 -59.0638,-8.60724 -94.9917,-14.02894 l -0.067,-0.0101 -0.073,0.0131 c -29.166,5.24521 -60.9646,10.90129 -94.9296,16.89547 v 0 c -29.945,-7.29193 -61.5634,-15.02638 -94.536,-23.11898 l -0.5817,-0.14277 -0.639,0.1683 c -30.3517,7.994 -61.8539,16.26941 -94.2589,24.76558 v 0 c -30.4835,-10.24387 -61.7575,-20.76785 -93.6151,-31.49861 l -1.6023,-0.53972 -1.7314,0.6061 c -30.5409,10.69114 -61.6186,21.56098 -93.0524,32.54935 v 0 c -30.4769,-13.00991 -61.279,-26.16438 -92.2405,-39.38965 l -3.0877,-1.31894 -3.2854,1.43846 c -30.361,13.29292 -60.8752,26.65034 -91.3881,40.00719 v 0 c -30.226,-15.62319 -60.4371,-31.23836 -90.4809,-46.76407 l -4.9574,-2.56184 -5.2057,2.73972 c -30.0066,15.79238 -59.8462,31.49983 -89.3693,47.04622 v 0 c -29.8816,-18.11236 -59.4157,-36.00743 -88.4434,-53.58592 l -7.0991,-4.2989 -7.365,4.53346 c -29.6279,18.2381 -58.7274,36.16094 -87.1317,53.6691 -29.6324,-20.57281 -58.4593,-40.56911 -86.2836,-59.84778 l -9.3564,-6.4819 -9.5787,6.76494 c -29.5053,20.84087 -57.8757,40.90538 -84.878,60.03398 v 0 c -30.0663,-23.44287 -58.2811,-45.39239 -84.2942,-65.56618 l -11.4535,-8.87805 -11.4711,9.19271 c -32.0177,25.67055 -60.6296,48.71345 -85.1752,68.61894 -2.0199,1.6381 3.8046,21.20709 1.7847,22.84519 z m 0,46.41401 c 2.0199,-1.6381 19.9642,8.10228 21.9841,6.46418 21.6198,-17.53283 46.2727,-37.64976 73.5246,-59.981 v 0 c 25.9809,19.65985 54.0444,40.83546 83.863,63.2885 l 10.6075,7.98549 10.4529,-7.68367 c 27.0646,-19.89943 55.5585,-40.88668 85.2364,-62.77519 v 0 c 27.7606,18.37638 56.4868,37.37105 85.989,56.86265 l 8.4807,5.6026 8.226,-5.34235 c 28.4598,-18.48466 57.6391,-37.45176 87.3659,-56.78591 v 0 c 28.9846,16.55966 58.4587,33.38982 88.2675,50.40499 l 6.2651,3.57612 6.0027,-3.36923 c 29.5517,-16.58735 59.4322,-33.36536 89.4887,-50.24537 v 0 c 30.0302,14.47678 60.2186,29.02709 90.4154,43.58131 l 4.2068,2.02761 3.9808,-1.87913 c 30.5113,-14.40273 61.0311,-28.80966 91.403,-43.14414 30.9776,12.19206 61.7896,24.32173 92.2716,36.32701 l 2.456,0.9673 2.2912,-0.87544 c 31.4044,-11.99933 62.4587,-23.85885 92.9812,-35.50596 v 0 c 31.8985,9.75309 63.2067,19.33577 93.7183,28.6884 l 1.1227,0.34414 1.0302,-0.30014 c 32.3552,-9.4259 63.8161,-18.57513 94.1348,-27.37103 33.0276,7.23307 64.6894,14.19253 94.6654,20.81425 l 0.2874,0.0635 0.2604,-0.0518 c 33.9102,-6.74391 65.6711,-13.01584 94.819,-18.71395 v 0 c 35.9763,4.87029 67.9479,9.29314 95.0397,13.17078 -27.1102,-3.88028 -59.0638,-8.60724 -94.9917,-14.02894 l -0.067,-0.0101 -0.073,0.0131 c -29.166,5.24522 -60.9646,10.9013 -94.9296,16.89548 v 0 c -29.945,-7.29193 -61.5634,-15.02638 -94.536,-23.11898 l -0.5817,-0.14277 -0.639,0.1683 c -30.3517,7.994 -61.8539,16.26941 -94.2589,24.76558 v 0 c -30.4835,-10.24387 -61.7575,-20.76785 -93.6151,-31.49861 l -1.6023,-0.53972 -1.7314,0.6061 c -30.5409,10.69114 -61.6186,21.56098 -93.0524,32.54935 v 0 c -30.4769,-13.00991 -61.279,-26.16438 -92.2405,-39.38965 l -3.0877,-1.31894 -3.2854,1.43846 c -30.361,13.29292 -60.8752,26.65034 -91.3881,40.00719 v 0 c -30.226,-15.62319 -60.4371,-31.23836 -90.4809,-46.76407 l -4.9574,-2.56184 -5.2057,2.73972 c -30.0066,15.79238 -59.8462,31.49983 -89.3693,47.04622 v 0 c -29.8816,-18.11236 -59.4157,-36.00743 -88.4434,-53.58592 l -7.0991,-4.2989 -7.365,4.53345 c -29.6279,18.23811 -58.7274,36.16095 -87.1317,53.66911 -29.6324,-20.57281 -58.4593,-40.56911 -86.2836,-59.84778 l -9.3564,-6.4819 -9.5787,6.76494 c -29.5053,20.84087 -57.8757,40.90538 -84.878,60.03398 v 0 c -30.0663,-23.44287 -58.2811,-45.39239 -84.2942,-65.56618 l -11.4535,-8.87805 -11.4711,9.19271 c -32.0177,25.67055 -60.6296,48.71345 -85.1752,68.61894 -2.0199,1.6381 3.8046,21.20709 1.7847,22.84519 z"
         id="use24"
         clip-path="url(#clipPath54)"
         transform="matrix(0.30131154,0,0,0.34651807,-543.27542,274.5532)" />
    </pattern>
    <clipPath
       clipPathUnits="userSpaceOnUse"
       id="clipPath68">
      <rect
         style="fill:#000000;stroke:none;stroke-width:0.999995;stroke-linecap:butt;stroke-linejoin:bevel;paint-order:stroke markers fill;stop-color:#000000"
         id="rect68"
         width="46.19186"
         height="80.006783"
         x="74.999985"
         y="399.99661" />
    </clipPath>
    <clipPath
       clipPathUnits="userSpaceOnUse"
       id="clipPath33">
      <rect
         style="fill:#000000;stroke:none;stroke-width:0.999995;stroke-linecap:butt;stroke-linejoin:bevel;paint-order:stroke markers fill;stop-color:#000000"
         id="rect33"
         width="46.19186"
         height="80.006783"
         x="74.999985"
         y="399.99661" />
    </clipPath>
    <clipPath
       clipPathUnits="userSpaceOnUse"
       id="clipPath25">
      <rect
         style="fill:#ff0000;stroke:none;stroke-width:3;stroke-linecap:square;stroke-linejoin:miter;paint-order:stroke markers fill;stop-color:#000000"
         id="rect25-8"
         width="78"
         height="45.033199"
         x="763.61322"
         y="452.82422" />
    </clipPath>
    <linearGradient
       id="swatch31">
      <stop
         style="stop-color:#000000;stop-opacity:1;"
         offset="0"
         id="stop31" />
    </linearGradient>
  </defs>
  <g
     id="layer1">
    <path
       style="fill:#000000;fill-opacity:1"
       d="m 285.62113,123.38833 -123.38833,-0.76166 -0.73356,118.83738 93.66606,0.57818 0.25286,-40.96333 28.67856,0.17703 -0.44553,72.17595 -157.21493,-0.97047 1.14598,-185.649011 158.25864,0.976905 z"
       id="path39" />
    <path
       style="fill:#000000;fill-opacity:1"
       d="m 256.67819,189.65243 h 77.68895 l -65.50245,134.81318 46.46104,75.40398 h -67.02576 l -3.80828,32.75122 110.44017,-0.76165 -50.26932,-112.72515 58.64754,-151.56961 -108.1552,-1.52331 z"
       id="path40" />
    <path
       style="fill:#000000;fill-opacity:1"
       d="m 292.47604,154.61624 2.28497,-65.502446 h 67.02576 l -1.52331,65.502446 h -19.04141 v -48.74601 l -32.75122,-0.76165 1.52331,47.98435 z"
       id="path41" />
    <path
       style="fill:url(#pattern71);fill-opacity:1"
       d="m 256.67819,290.95273 -22.84969,36.5595 29.7046,52.55429 -37.32116,-1.52331 -1.52331,48.74601 H 128.71992 V 285.62113 Z"
       id="path42" />
  </g>
</svg>
